<svg xmlns="http://www.w3.org/2000/svg"  viewBox="0 0 50 50" width="75px" height="75px"><path d="M 12.5 11 C 10.019 11 8 13.019 8 15.5 L 8 33.5 C 8 35.981 10.019 38 12.5 38 L 37.5 38 C 39.981 38 42 35.981 42 33.5 L 42 15.5 C 42 13.019 39.981 11 37.5 11 L 12.5 11 z M 12.5 12 L 37.5 12 C 39.43 12 41 13.57 41 15.5 L 41 33.5 C 41 35.43 39.43 37 37.5 37 L 12.5 37 C 10.57 37 9 35.43 9 33.5 L 9 15.5 C 9 13.57 10.57 12 12.5 12 z M 19 16 C 16.257 16 14 18.257 14 21 C 14 23.743 16.257 26 19 26 C 21.743 26 24 23.743 24 21 L 19 21 L 19 16 z M 27.5 18 C 27.224 18 27 18.224 27 18.5 C 27 18.776 27.224 19 27.5 19 L 35.5 19 C 35.776 19 36 18.776 36 18.5 C 36 18.224 35.776 18 35.5 18 L 27.5 18 z M 27.5 23 C 27.224 23 27 23.224 27 23.5 C 27 23.776 27.224 24 27.5 24 L 35.5 24 C 35.776 24 36 23.776 36 23.5 C 36 23.224 35.776 23 35.5 23 L 27.5 23 z M 23.5 29 C 23.224 29 23 29.224 23 29.5 L 23 31 L 14.5 31 C 14.22 31 14 31.22 14 31.5 C 14 31.78 14.22 32 14.5 32 L 23 32 L 23 33.5 C 23 33.776 23.224 34 23.5 34 C 23.776 34 24 33.776 24 33.5 L 24 29.5 C 24 29.224 23.776 29 23.5 29 z M 25 31 L 25 32 L 35.5 32 C 35.78 32 36 31.78 36 31.5 C 36 31.22 35.78 31 35.5 31 L 25 31 z"/></svg>